<svg version="1" xmlns="http://www.w3.org/2000/svg" width="1440" height="1440" viewBox="0 0 1080.000000 1080.000000"><path d="M199.8 199.7C14.9 384.6 4 395.7 4.4 398.5c.3 1.6 1.2 5.7 2.1 9 1 3.3 1.9 6.7 2.1 7.5.2.8 2.4 9.1 5 18.5 2.5 9.3 4.9 18.6 5.4 20.5.4 1.9 4.7 17.9 9.5 35.5 10 37.2 10.3 38.2 14.5 54 12.8 48.2 24.2 90.8 25.5 95 .8 2.7 2.6 9.5 4 15 2.6 9.7 27.1 101.4 30.2 112.5.8 3 2.3 8.6 3.3 12.5 1 3.8 3 11.3 4.4 16.5 1.3 5.2 4.8 18 7.6 28.5 6.2 23.1 9.5 35.3 12.5 46.5 1.2 4.7 5.5 20.7 9.5 35.7l7.3 27.2 5.1 1.2c2.8.7 5.3 1.4 5.6 1.4.3.1 2.5.7 5 1.4s14.6 3.9 27 7.2c20.5 5.5 30.6 8.2 46 12.4l30 8c13.5 3.6 25.9 6.9 27.5 7.4 1.7.5 10.2 2.8 19 5.1s18.9 5 22.5 6c3.6 1 17.8 4.8 31.5 8.5 13.8 3.6 36.5 9.7 50.5 13.5 14 3.8 29.8 8 35 9.4 5.2 1.3 12.2 3.2 15.5 4.1 3.3.9 11 3 17 4.6 6.1 1.6 16 4.2 22 5.9 6.1 1.6 16 4.2 22 5.9 6.1 1.6 23.8 6.4 39.5 10.6 15.7 4.2 33.7 9 40 10.7 6.3 1.6 13.8 3.6 16.5 4.3 9.3 2.6 39 10.6 40.5 10.9 6.5 1.6 17.2 4.6 17.8 5 .4.2 89.1-88 197.2-196l196.5-196.5-2.4-8.7c-1.2-4.8-2.4-9.4-2.6-10.3-.2-.9-1.2-4.7-2.4-8.5-1.6-5.5-6.8-25-8.6-32.4-.2-.8-4.3-15.9-9-33.5-8.7-32.4-12.9-48-26.1-97.5-4.1-15.1-8.1-30-8.9-33-2.3-8.4-9-33.2-12.4-46-1.6-6.3-4.4-16.7-6.1-23-1.7-6.3-4.5-16.7-6.2-23-1.6-6.3-3.6-13.8-4.3-16.5-.8-2.8-3.3-12-5.6-20.5-2.2-8.5-5.4-20.2-6.9-26-3-11.1-5.5-20.5-9-33.5-1.2-4.4-3-11.4-4.2-15.5-1.1-4.1-2.1-8-2.2-8.5-.2-.6-.8-3-1.5-5.5s-1.5-5.3-1.7-6.4c-.2-1-.8-3.3-1.3-5-.6-1.7-2.2-7.6-3.6-13.1-3.4-12.8-4.1-15.4-11.3-42.5-3.3-12.4-6.2-23.7-6.6-25.1-.4-1.7-1.4-2.8-2.8-3.1-1.3-.3-16-4.2-32.8-8.8-16.8-4.5-31.2-8.4-32-8.6-1.3-.3-7.3-1.9-22-5.9-1.4-.4-13.3-3.6-26.5-7.1-13.2-3.5-26.5-7.1-29.5-7.9-3-.8-9.5-2.6-14.5-3.9-4.9-1.3-18.4-4.9-30-8.1-11.5-3.1-21.7-5.8-22.5-6-1.7-.4-9.7-2.5-34-9.1-27.6-7.4-61.4-16.5-63-16.9-.8-.2-14.3-3.8-30-8-56.5-15.2-121.7-32.7-129-34.6-4.1-1.1-7.9-2.1-8.5-2.3-.5-.1-2.3-.6-4-1-1.6-.5-14.5-3.9-28.6-7.7C409.8 7.1 397.7 4 397 4c-.7 0-89.5 88.1-197.2 195.7zm542.6 75.5c5.5 4.6 11 9 12 9.8 1.1.8 3.5 2.9 5.5 4.6 2 1.6 10.7 8.8 19.3 15.8l15.7 12.8-6.7 6.6c-3.7 3.7-8.6 8.9-10.7 11.7-2.2 2.7-4.5 5.4-5.1 6-2.5 2.2-26.5 32.8-34.7 44-4.7 6.6-17.7 24.4-28.8 39.5-11.1 15.1-23.1 31.5-26.7 36.5-3.6 4.9-7.6 10.4-8.8 12l-2.3 3 4.8 7c2.6 3.9 13.5 20 24.2 36 55 81.7 63.4 93.9 75.3 110.5 7.8 10.9 25.1 33.4 28.1 36.6 3.6 3.8 10 11.8 10 12.5 0 .4-16.1 11.6-35.7 24.9L742 729l-3.5-7c-10.8-21.4-30.7-54.2-56.6-93.2-10-15-20.7-31.1-23.8-35.8-3.1-4.7-5.9-8.7-6.3-8.8-.5-.2-.8-.7-.8-1.2 0-.9-41.8-64-42.4-64-.6 0 .2 140.2.8 148.5.4 4.4.8 10.5 1.1 13.5 1.2 16.2 1.8 25 1.9 29.9l.1 5.3h-43.2c-23.8 0-43.7-.3-44.3-.7-.6-.3-.9-.9-.6-1.3.2-.4.7-4.5 1-9.2 1.3-16.9 1.7-20.6 2.1-25.5 1.7-18 2-45.1 2-181 0-131.1-.3-162.9-2-182.5-.1-1.9-.6-7.6-.9-12.5-.4-5-1-12.5-1.4-16.8l-.8-7.7 4.1-.1c2.2 0 22.2-.1 44.3-.2l40.4-.2-.7 9c-.4 4.9-.9 10.1-1 11.5-.2 1.4-.6 6.5-1 11.5-.4 4.9-.9 10.1-1.2 11.5-.5 2.9-1.2 118-.7 118 .4 0 8.9-11.4 37-49.9 12.6-17.2 30.5-41.7 39.8-54.5 9.3-12.7 20.2-28.1 24.2-34.1 4-6.1 7.8-11.5 8.3-12.1.5-.6 1.9-3.1 3.2-5.5 2.9-5.7 9.9-16.9 10.6-16.9.3 0 5.1 3.7 10.7 8.2zm-270.2 3.7c2.2.1 2.6.5 2.3 2.3-1.8 12.3-1.9 14.2-3 46.6-.3 10-.9 19.2-1.3 20.5-.3 1.2-.7 59.3-.8 129.2-.2 69.8-.5 133.9-.8 142.2-1 26.4-6.3 55.2-14.6 78.8-3.6 10.2-4.5 12.3-10.8 25.5-16.6 34.7-42.5 62.5-73 78.3-18.1 9.3-71.9 31.5-73.1 30.1-.4-.5-3.2-6.5-6-13.4-2.9-6.9-5.9-13.9-6.7-15.5-.7-1.7-5.2-12-9.9-22.9-8.7-20.2-8.9-21.4-4.5-21.7.8 0 2.2-.2 3-.4.8-.2 5.9-1.3 11.4-2.5 20.9-4.6 36.6-11.3 50.2-21.6 8.1-6.1 19.5-18.1 25.1-26.4 3.5-5.2 12.7-22.8 15-28.5 3.9-10.2 9.3-31.5 10.8-43.5.3-2.5.8-5.6 1-7 .2-1.4.7-5.4 1.1-9 .3-3.6.8-8.5 1.1-11 .2-2.5.5-62 .7-132.3.2-114.9.1-127.7-1.3-127.8-10.3-.7-50.6-.2-57.1.7-4.7.6-12.8 1.2-17.9 1.3-5.2.1-9.8.4-10.2.7-.4.2-2.6.7-4.8 1l-3.9.6v-36.9c0-35.5.1-36.8 2-37.3 1.4-.4 160.6-.4 176-.1z"/></svg>