<svg version="1" xmlns="http://www.w3.org/2000/svg" width="949.333" height="949.333" viewBox="0 0 712.000000 712.000000"><path d="M210.7 103.7c-18.6 26.9-59.3 85.5-122.5 176.3-15.1 21.7-27.7 40.2-27.9 41.1-.3.9 4.8 12.4 11.2 25.7 6.4 13.2 11.4 24.6 11 25.1-.3.6 0 1.1.7 1.1 1.3 0 23.8 47.1 23.8 49.8 0 .7-2.3 5.8-5.1 11.3-2.7 5.6-4.8 10.3-4.6 10.6 1.1 1 6.8 1.2 67.7 1.3 37.5.1 62.7.5 61.5 1-1.1.5-9.9 2.1-19.5 3.6-9.6 1.4-25.6 3.9-35.5 5.4-9.9 1.6-27.4 4.3-39 6-11.5 1.8-21.3 3.5-21.7 3.9-.4.3 11 4.8 25.3 10 14.2 5.2 25.9 9.5 25.9 9.7 0 .1-4.6 3.1-10.2 6.5l-10.2 6.3 15 2.8c8.2 1.5 21.5 4 29.7 5.5 8.1 1.5 14.7 3 14.7 3.4 0 .3-4.6 1.9-10.2 3.4-15.6 4.1-48 13.4-48.4 13.8-.2.2 11.9 11.6 26.9 25.5l27.2 25.2h7c6.7 0 59.7-1.9 111-4 13.2-.5 34.1-1.1 46.5-1.4 22-.5 22.3-.5 14 .9-4.7.8-17.9 2.8-29.5 4.4-60.1 8.4-139.3 19.9-138 20 .6.1 8 .8 16.5 1.6 8.5.9 30.4 2.9 48.5 4.5 65.8 6 85.7 7.9 86.1 8.3.2.2-5.9 3.7-13.6 7.8l-14 7.4 65.1.3 65.1.2 30.6-20.2 30.6-20.3-21.5-.5-21.4-.5 6.5-3c3.6-1.7 18.5-8.2 33.3-14.5 14.7-6.3 26.7-11.8 26.7-12.1 0-.3-5.5-2.2-12.2-4.2-24.8-7.4-70.1-21.6-70.6-22.1-.9-.9 1.2-1.3 57.3-10.6 30.3-4.9 56.2-9.3 57.7-9.8 2.4-.6 1.7-1.2-8-5.7-28.5-13.2-39.5-18.6-39-19.1.3-.2 11.7-2 25.4-3.9s28.5-3.9 33-4.6l8-1.2 11-19.5c6-10.8 11-19.9 11.2-20.2.1-.4-2.6-1.8-6-3-3.5-1.3-6.5-2.5-6.7-2.6-.2-.2 6.3-6.7 14.3-14.6l14.6-14.3.1-15.5.2-15.5L576.5 241c-32.9-71.2-60.2-129.9-60.7-130.5-.4-.5-6.8-1.5-14.1-2.1-7.2-.7-28-2.7-46.2-4.4-53.5-5-115.7-10.8-150-14-17.6-1.6-41.7-3.9-53.5-5-11.8-1.1-22.7-2-24.2-2-2.3 0-4.4 2.5-17.1 20.7zM33.5 342.8c-5 3.7-13.9 10.2-19.8 14.5-5.9 4.4-10.7 8.1-10.7 8.3 0 .3 3.7-1.5 8.3-3.9 30.7-16.7 32.4-17.4 42-19.8 5.3-1.2 9.4-2.6 9-3-.8-.7-15-2.9-18.1-2.9-.9.1-5.8 3.1-10.7 6.8zM629 348.3c0 .2 3.2 1.7 7.2 3.2 6 2.4 8.4 4.1 14.6 10.4 8 8.3 7.9 7.7-1.5-7.2L645 348h-8c-4.4 0-8 .2-8 .3z"/><path d="M32.2 366c-9 5.4-15.9 10.1-15.5 10.3C18 377.1 88 403 88.8 403c.4 0-10.9-6.4-25.1-14.2C49.6 381 38 374.2 38 373.7s2.5-4.5 5.6-8.9c3.1-4.3 5.5-8.1 5.3-8.3-.2-.2-7.7 4.1-16.7 9.5zM682.2 367.1c4.8 3.5 8.8 6.7 8.8 7 0 .4-7.7 5.5-17 11.4-9.4 5.9-16.9 10.9-16.7 11.2.5.4 54.7-20 54.7-20.7 0-.4-31.7-13-37.4-14.9-.6-.2 2.8 2.5 7.6 6zM31.5 408.3l14 14.6h22l22-.1-20-5.1-20-5.2-15-8.9c-8.2-4.9-15.4-9.1-16-9.4-.5-.3 5.3 6 13 14.1zM642.3 410.8c-9.5 3.7-17.3 7-17.3 7.3 0 .4 2.7 1.2 5.9 1.9l6 1.2 9.8-6.8c12-8.3 14.8-10.4 13.7-10.3-.5 0-8.7 3-18.1 6.7z"/></svg>